<svg id="Layer_1" data-name="Layer 1" xmlns="http://www.w3.org/2000/svg" viewBox="0 0 432.56 422.26"><defs><style>.cls-1{fill:#0c7550;}.cls-2{fill:#17704f;}.cls-3{fill:#9e2140;}.cls-4{fill:#c3a466;}.cls-5{fill:#fff;}.cls-6{fill:#f4a51f;}.cls-7{fill:#309645;}.cls-8{fill:#221e1f;}.cls-9{fill:#b92b29;}.cls-10{fill:#299347;}</style></defs><path class="cls-1" d="M217.5,27.46c100.11,0,181.29,82,181.3,183.12,0,100.63-81.51,183.33-181.12,182.9-101.19-.43-179.41-82.32-180.92-180.12-1.61-104,82-186.35,180.74-185.9M41.36,210.28c.19,98.79,79,178.62,176.42,178.65s176.61-80.31,176.39-179.18c-.23-98.5-79.78-178.16-177.74-178-96.26.16-175.26,80.73-175.07,178.52"/><path class="cls-2" d="M102.88,118.63a1.48,1.48,0,0,0,1.39-1.39c0-.93-.92-1.86-1.39-1.4l-7.9.93v1.4c3-1,5.4-.06,7.9.46"/><path class="cls-2" d="M99.62,123.28a1.49,1.49,0,0,0,1.4-1.39,1.24,1.24,0,0,0-1.4-1.4l-7.9,1.4v1.39c3-1.18,5.44-.4,7.9,0"/><path class="cls-2" d="M96.84,127.93a1.48,1.48,0,0,0,1.39-1.39c0-.93-.93-1.4-1.86-1.4L88.47,127l.46.93c3.13-1.2,5.46-.4,7.91,0"/><path class="cls-2" d="M93.58,133.05a1.24,1.24,0,0,0,1.4-1.4c-.47-.93-.93-1.39-1.86-1.39l-7.91,2.32.47.93c2.78-.87,5.59-.55,7.9-.46"/><path class="cls-2" d="M90.79,138.16c.47,0,.93-.93.93-1.86,0-.46-.93-.93-1.86-.93l-7.44,3.26.47.93a15.43,15.43,0,0,1,7.9-1.4"/><path class="cls-2" d="M87.07,144.21c.47,0,.93-.93.93-1.4,0-.93-.93-1.39-1.86-1.39l-7.44,3.25.47.93a15.42,15.42,0,0,1,7.9-1.39"/><path class="cls-2" d="M84.75,149.79c.93,0,1.39-.93.93-1.86,0-.47-.93-.93-1.86-.93l-7.44,2.79.46,1.39a15.33,15.33,0,0,1,7.91-1.39"/><path class="cls-2" d="M82.89,155.37c.93-.47,1.39-.93.93-1.86,0-.93-.93-1.4-1.86-.93l-7.44,2.79.46.93a17,17,0,0,1,7.91-.93"/><path class="cls-2" d="M81,160.48a2,2,0,0,0,.46-2.32c0-.47-.93-.93-1.86-.93l-7,3.72.47.93a15,15,0,0,1,7.9-1.4"/><path class="cls-2" d="M78.7,166.53c.93,0,1.4-.93.93-1.86,0-.47-.93-.93-1.86-.47l-7,3.72.46.93a30,30,0,0,1,7.44-2.32"/><path class="cls-2" d="M76.84,173c.93,0,1.4-.93.93-1.86a2.39,2.39,0,0,0-1.86-.93l-7,4.18.47.93A29.76,29.76,0,0,1,76.84,173"/><path class="cls-2" d="M107.06,114a1.48,1.48,0,0,0,1.4-1.39c0-.93-.93-1.4-1.86-1.4l-7.91,1.4v.93c3.33-.92,5.85,0,8.37.46"/><path class="cls-2" d="M110.78,109.33a1.48,1.48,0,0,0,1.4-1.39c-.47-.93-.93-1.4-1.86-1.4l-7.91,1.4v.93a16,16,0,0,1,8.37.46"/><path class="cls-2" d="M115,105.15c.93,0,1.39-.93,1.39-1.86a1.48,1.48,0,0,0-1.39-1.4l-7.91,1.4v.93c3-.67,5.42.3,7.91.93"/><path class="cls-2" d="M118.22,100c.93-.46,1.4-.93,1.4-1.86s-.93-1.39-1.86-1.39l-7.44,2.32v1.39c2.94-1.48,5.41-.76,7.9-.46"/><path class="cls-2" d="M108,93.52c0-.93-.93-1.39-1.86-.93-.93,0-1.39.93-.93,1.86l2.79,7.44.93-.46c-1.14-2.76-.91-5.37-.93-7.91"/><path class="cls-2" d="M103.81,96.78c0-.47-.93-.94-1.86-.94-.47,0-.93.94-.93,1.87l2.79,7.44h.93a19.87,19.87,0,0,1-.93-8.37"/><path class="cls-2" d="M99.62,101c0-.93-.93-1.39-1.85-.93-.93,0-1.4.93-.93,1.86l3.71,8.84h.93c-1.5-3.27-1.61-6.7-1.86-9.77"/><path class="cls-2" d="M95.91,105.15a2.52,2.52,0,0,0-1.86-1.4c-.93.47-1.4.93-1.4,1.86l3.72,9.3.93-.46c-1.89-3.24-1.47-6.49-1.39-9.3"/><path class="cls-2" d="M92.19,108.87c0-.93-.93-.93-1.86-.93a2.39,2.39,0,0,0-.93,1.86l4.18,8.83h.93c-1.47-3.36-2.53-6.56-2.32-9.76"/><path class="cls-2" d="M88,114a2.42,2.42,0,0,0-1.86-.93,1.71,1.71,0,0,0-.93,2.33l4.19,8.83.93-.46c-1.45-3.4-2.55-6.36-2.33-9.77"/><path class="cls-2" d="M84.28,119.56c0-.93-.93-.93-1.86-.93a3.6,3.6,0,0,0-.93,1.86l4.19,8.84.93-.47c-1.52-3.22-2.53-6.22-2.33-9.3"/><path class="cls-2" d="M81,124.21c0-.46-.93-.93-1.86-.46-.47,0-.93.93-.47,1.86L83.35,134l.93-.47a29.63,29.63,0,0,1-3.25-9.3"/><path class="cls-2" d="M78.54,129.31a1.85,1.85,0,0,0-1.86-.93,1.69,1.69,0,0,0-.92,2.32l4.64,8.37,1.4-.46c-1.94-3.23-3.35-6.08-3.26-9.3"/><path class="cls-2" d="M75,134.44c-.46-.46-1.39-.93-1.86-.46-.92.46-.92,1.39-.46,2.32l5.58,7.91.93-.47c-2-3.11-3.64-6-4.19-9.3"/><path class="cls-2" d="M72.66,140c-.46-.46-1.4-.93-1.86-.46-.93.46-1.39,1.39-.93,1.86l5.58,8.37.93-.47a26.44,26.44,0,0,1-3.72-9.3"/><path class="cls-2" d="M70.34,144.21c-.47-.47-1.4-.93-1.86-.47-.93.47-.93,1.4-.47,2.33l6,7.44L75,153c-2.23-2.91-4.06-5.65-4.65-8.83"/><path class="cls-2" d="M68,148.86a1.35,1.35,0,1,0-2.32,1.39l6.51,7.44.92-.46c-2.53-2.49-3.9-5.78-5.11-8.37"/><path class="cls-2" d="M66.62,153.51a1.4,1.4,0,0,0-1.86,0,1.15,1.15,0,0,0-.47,1.86l6,7.44.92-.47c-2.23-3-4-5.59-4.64-8.83"/><path class="cls-2" d="M64.29,160c-.46-.93-1.39-.93-2.32-.47a2.07,2.07,0,0,0,0,2.33l6.51,7,.93-.93c-2.59-2.31-3.92-5.44-5.12-7.9"/><path class="cls-2" d="M62.43,165.6a1.4,1.4,0,0,0-1.86,0c-.46.46-.93,1.39-.46,1.86l7,7.44L68,174a28.05,28.05,0,0,1-5.58-8.37"/><path class="cls-2" d="M61,173c-.93-.47-1.86-.93-2.33,0a1.43,1.43,0,0,0,0,1.86l7,7,.93-.93c-2.71-2.55-4.86-4.79-5.58-7.9"/><path class="cls-2" d="M60.11,180.94a1.54,1.54,0,0,0-2.33,0,1.43,1.43,0,0,0,0,1.86l7,7,.93-.93c-2.78-2.26-4.27-5.44-5.58-7.91"/><path class="cls-2" d="M58.71,189.78a2,2,0,0,0-2.32,0,1.4,1.4,0,0,0,0,1.86l7,7,.93-.47c-2.67-2.74-4.84-5.14-5.58-8.37"/><path class="cls-2" d="M57.78,198.62c-.46-.47-1.39-.94-1.86,0-.46.46-.93,1.39,0,1.85l7,6.52.93-.47c-2.57-2.45-4.77-4.85-6-7.9"/><path class="cls-2" d="M57.78,207.45c-.93-.93-1.86-.93-2.32-.47a2.06,2.06,0,0,0,0,2.33l7.44,6.05.93-.47c-2.93-2-4.58-5-6-7.44"/><path class="cls-2" d="M57.32,215.36a2.07,2.07,0,0,0-2.33,0c-.46.93-.46,1.86.47,2.32l8.37,5.11.46-.92c-3-1.64-5-4.25-7-6.51"/><path class="cls-2" d="M57.78,223.73a1.68,1.68,0,0,0-1.86,2.79l8.84,4.18.46-.93c-3.33-1.7-5.9-3.08-7.44-6"/><path class="cls-2" d="M58.71,232.1a1.68,1.68,0,0,0-1.86,2.79l8.84,4.18.46-.93c-3.33-1.7-5.9-3.09-7.44-6"/><path class="cls-2" d="M59.64,240.46a2,2,0,0,0-2.32.47c0,.93,0,1.86.93,1.86l9.3,3.26.46-.93c-3.21-1.2-6.27-2.52-8.37-4.66"/><path class="cls-2" d="M60.57,247c-.93-.47-1.86,0-1.86.93-.46.46,0,1.39.47,1.86l9.3,3.25.46-.93c-3.18-1.41-6.09-2.73-8.37-5.11"/><path class="cls-2" d="M62,253c-.93-.46-1.4,0-1.86.93-.47.47,0,1.4.46,1.86l9.3,3.26.46-.93c-3.18-1.42-6.08-2.73-8.36-5.12"/><path class="cls-2" d="M63.36,258.14a2,2,0,0,0-2.32.46,3.54,3.54,0,0,0,.46,2.33l10.69,5.58.94-.93c-3.63-2.34-7.56-4.33-9.77-7.44"/><path class="cls-2" d="M75.45,180c.93-.46.93-1.39.93-2.32a2,2,0,0,0-2.33-.47l-8.36,5.12.46.93c3-2.2,6.41-2.67,9.3-3.26"/><path class="cls-2" d="M74.06,187c.46-.47.93-1.4.46-1.86a1.15,1.15,0,0,0-1.86-.47l-7.9,6.05.46.93c2.92-2.23,5.66-4.06,8.84-4.65"/><path class="cls-2" d="M73.59,194.89a1.35,1.35,0,1,0-1.39-2.32l-7.91,6.05.47.92c2.91-2.22,5.65-4,8.83-4.65"/><path class="cls-2" d="M72.66,202.8c.93-.46.93-1.4.47-2.32a2.07,2.07,0,0,0-2.33,0l-7,6.5.46.93c2.49-2.53,5.78-3.9,8.37-5.11"/><path class="cls-2" d="M72.2,210.71a1.36,1.36,0,0,0-1.4-2.33l-7.44,7,.93.92a44.13,44.13,0,0,1,7.91-5.57"/><path class="cls-2" d="M72.66,217.68c.93-.47.93-1.4,0-2.32a1.4,1.4,0,0,0-1.86,0l-6.51,7.44.93.93c2-3,5.11-4.64,7.44-6"/><path class="cls-2" d="M73.13,224.19a2.09,2.09,0,0,0,0-2.32,1.4,1.4,0,0,0-1.86,0l-6.51,7.44.46.93c2.57-2.92,4.68-5.23,7.91-6.05"/><path class="cls-2" d="M73.59,231.63a1.4,1.4,0,0,0,0-1.86c-.46-.93-1.39-.46-2.32,0l-5.58,7.91.93.46c1.88-2.78,4.58-4.66,7-6.51"/><path class="cls-2" d="M75,238.14a2,2,0,0,0,0-2.32c-.93-.47-1.86-.47-2.32.46l-5.11,8.37.93.47c1.6-3,4.36-5.13,6.5-7"/><path class="cls-2" d="M78.7,253c.47-.93.47-1.86-.46-2.32a1.15,1.15,0,0,0-1.86.46l-5.12,8.37.94.47c1.89-3.11,3.56-5.54,6.5-7"/><path class="cls-2" d="M82,260a1.68,1.68,0,1,0-2.79-1.86l-4.65,9.76.93.47c1.87-3.58,3.34-6.63,6.51-8.37"/><path class="cls-2" d="M76.84,244.65a2,2,0,0,0-.46-2.32c-.93-.47-1.86,0-1.86.46l-5.11,9.77.93.46c1.49-3.47,4.24-6.07,6.5-8.37"/><path class="cls-2" d="M114,94c-27.9,27.43-45.57,60.45-50.68,96.25-5.11,36.28,2.79,73,22.78,106,.47.93,1.4.93,2.33.46a1.15,1.15,0,0,0,.46-1.86C69.4,262.32,61.5,226.52,66.62,190.71c5.11-34.88,21.85-67.89,49.28-94.4.93-.46.93-1.39,0-2.32A1.4,1.4,0,0,0,114,94"/><path class="cls-2" d="M332.55,118.63a1.49,1.49,0,0,1-1.4-1.39c0-.93.47-1.86,1.4-1.4l7.9.93v1.4c-3-1-5.4-.06-7.9.46"/><path class="cls-2" d="M335.8,123.28a1.48,1.48,0,0,1-1.39-1.39,1.23,1.23,0,0,1,1.39-1.4l7.91,1.4v1.39c-3-1.18-5.44-.4-7.91,0"/><path class="cls-2" d="M338.59,127.93a1.48,1.48,0,0,1-1.39-1.39c0-.93.93-1.4,1.86-1.4L347,127l-.47.93c-3.13-1.2-5.45-.4-7.9,0"/><path class="cls-2" d="M341.85,133.05a1.24,1.24,0,0,1-1.4-1.4c.47-.93.93-1.39,1.86-1.39l7.9,2.32-.46.93c-2.78-.87-5.59-.55-7.9-.46"/><path class="cls-2" d="M344.64,138.16a1.37,1.37,0,0,1-.93-1.86c0-.46.93-.93,1.85-.93l7.45,3.26-.47.93a15.45,15.45,0,0,0-7.9-1.4"/><path class="cls-2" d="M348.36,144.21c-.47,0-1.4-.93-.93-1.4,0-.93.93-1.39,1.86-1.39l7.44,3.25-.47.93a15.42,15.42,0,0,0-7.9-1.39"/><path class="cls-2" d="M350.68,149.79c-.93,0-1.4-.93-.93-1.86,0-.47.93-.93,1.86-.93l7.44,2.79-.47,1.39a15.3,15.3,0,0,0-7.9-1.39"/><path class="cls-2" d="M352.54,155.37c-.93-.47-1.4-.93-.93-1.86,0-.93.93-1.4,1.86-.93l7.44,2.79-.47.93a16.91,16.91,0,0,0-7.9-.93"/><path class="cls-2" d="M354.4,160.48a2,2,0,0,1-.47-2.32c0-.47.93-.93,1.86-.93l7,3.72-.47.93a15,15,0,0,0-7.9-1.4"/><path class="cls-2" d="M356.26,166.53c-.47,0-.93-.93-.47-1.86,0-.47.94-.93,1.86-.47l7,3.72-.47.93a24.84,24.84,0,0,0-7.9-2.32"/><path class="cls-2" d="M358.92,173.54a1.75,1.75,0,0,1-1.27-2.36,2.41,2.41,0,0,1,1.86-.93l7,4.18-.47.93c-2.43-1.29-4.83-1.29-7.1-1.82"/><path class="cls-2" d="M328.36,114a1.48,1.48,0,0,1-1.39-1.39c0-.93.93-1.4,1.86-1.4l7.9,1.4v.93c-3.32-.92-5.84,0-8.37.46"/><path class="cls-2" d="M324.64,109.33a1.48,1.48,0,0,1-1.39-1.39c0-.93.93-1.4,1.86-1.4l7.9,1.4v.93c-3.32-.92-5.84,0-8.37.46"/><path class="cls-2" d="M320.46,105.15c-.93,0-1.86-.93-1.39-1.86a1.48,1.48,0,0,1,1.39-1.4l7.9,1.4v.93c-2.95-.67-5.41.3-7.9.93"/><path class="cls-2" d="M317.2,100c-.93-.46-1.39-.93-1.39-1.86s.93-1.39,1.86-1.39l7.44,2.32v1.39c-2.94-1.48-5.41-.76-7.91-.46"/><path class="cls-2" d="M324.84,94.45c-.22-.9.57-1.57,1.59-1.34.9-.22,1.57.57,1.34,1.59l-.94,7.88-1-.23c.45-2.94-.39-5.43-1-7.9"/><path class="cls-2" d="M331.62,96.78c0-.47.93-.94,1.86-.94.46,0,.93.94.93,1.87l-2.79,7.44h-.93a20.2,20.2,0,0,0,.93-8.37"/><path class="cls-2" d="M335.8,101c0-.93.93-1.39,1.86-.93.93,0,.93.93.93,1.86l-3.72,8.84h-.93c1.53-3.27,1.63-6.94,1.86-9.77"/><path class="cls-2" d="M339.52,105.15c.47-.93.93-1.4,1.86-1.4.93.47,1.4.93,1.4,1.86l-3.72,9.3-.93-.46c1.88-3.32,1.47-6.51,1.39-9.3"/><path class="cls-2" d="M343.24,108.87c0-.93.93-.93,1.86-.93a2.42,2.42,0,0,1,.93,1.86l-4.18,8.83h-.93c1.47-3.36,2.53-6.56,2.32-9.76"/><path class="cls-2" d="M347.43,114a2.42,2.42,0,0,1,1.86-.93,1.7,1.7,0,0,1,.92,2.33c-.46.46-.92.93-1.39.93l-2.79,7.9-.93-.46,2.79-7.91c-.46-.46-.93-.93-.46-1.86"/><path class="cls-2" d="M351.14,119.56c0-.93.94-.93,1.86-.93a3.52,3.52,0,0,1,.93,1.86l-4.18,8.84-1.39-.47c1.72-3.22,2.93-6.15,2.78-9.3"/><path class="cls-2" d="M354.4,124.21c0-.46.93-.93,1.86-.46.46,0,.93.93.46,1.86L352.08,134l-.93-.47a29.63,29.63,0,0,0,3.25-9.3"/><path class="cls-2" d="M357.65,130.26a1.86,1.86,0,0,1,1.86-.93,1.69,1.69,0,0,1,.93,2.32L355.8,140l-1.4-.46c1.94-3.23,3.35-6.08,3.25-9.3"/><path class="cls-2" d="M360.44,134.44c.47-.46,1.4-.93,1.86-.46.93.46.93,1.39.47,2.32l-5.58,7.91-.93-.47c2-3.11,3.64-6,4.18-9.3"/><path class="cls-2" d="M362.77,140c.46-.46,1.39-.93,1.86-.46a1.85,1.85,0,0,1,.93,1.86L360,149.79l-.93-.47a26.44,26.44,0,0,0,3.72-9.3"/><path class="cls-2" d="M365.09,144.21c.47-.47,1.4-.93,1.86-.47.93.47.93,1.4.47,2.33l-6.05,7.44-.92-.47c2.22-2.91,4-5.65,4.64-8.83"/><path class="cls-2" d="M367.42,148.86a1.35,1.35,0,1,1,2.32,1.39l-6.51,7.44-.93-.46c2.54-2.49,3.9-5.78,5.12-8.37"/><path class="cls-2" d="M368.81,153.51a1.4,1.4,0,0,1,1.86,0,1.15,1.15,0,0,1,.47,1.86l-6.05,7.44-.93-.47c2.24-3,4-5.59,4.65-8.83"/><path class="cls-2" d="M371.14,160c.46-.93,1.39-.93,2.32-.47a2.07,2.07,0,0,1,0,2.33l-6.51,7-.93-.93c2.59-2.31,3.91-5.44,5.12-7.9"/><path class="cls-2" d="M373,165.6a1.39,1.39,0,0,1,1.85,0c.47.46.93,1.39.47,1.86l-7,7.44-.93-.93A28.24,28.24,0,0,0,373,165.6"/><path class="cls-2" d="M374.39,173a1.54,1.54,0,0,1,2.33,0,1.43,1.43,0,0,1,0,1.86l-7,7-.93-.93c2.7-2.55,4.86-4.79,5.58-7.9"/><path class="cls-2" d="M375.32,180.94a1.54,1.54,0,0,1,2.33,0,1.43,1.43,0,0,1,0,1.86l-7,7-.93-.93c2.77-2.26,4.27-5.44,5.58-7.91"/><path class="cls-2" d="M376.64,187.49a1.53,1.53,0,0,1,2.32,0,1.4,1.4,0,0,1,0,1.86l-7,7-.93-.92c2.77-2.26,4.27-5.45,5.58-7.91"/><path class="cls-2" d="M377,194.51a1.54,1.54,0,0,1,2.33,0,1.43,1.43,0,0,1,0,1.86l-7,7-.92-.93c2.77-2.26,4.26-5.44,5.57-7.91"/><path class="cls-2" d="M378.36,203.76a1.54,1.54,0,0,1,2.33,0,1.43,1.43,0,0,1,0,1.86l-7,7-.93-.93c2.77-2.26,4.27-5.44,5.58-7.91"/><path class="cls-2" d="M378.11,215.36a1.52,1.52,0,1,1,1.86,2.32l-8.37,5.11-.93-.92c3.16-1.59,5.37-4.25,7.44-6.51"/><path class="cls-2" d="M377.65,223.73a1.67,1.67,0,1,1,1.85,2.79l-8.83,4.18-.46-.93c3.33-1.7,5.9-3.08,7.44-6"/><path class="cls-2" d="M376.72,232.1a2,2,0,0,1,2.32.46,3.54,3.54,0,0,1-.46,2.33l-8.84,4.18-.93-.93c3.56-1.72,6.31-3.08,7.91-6"/><path class="cls-2" d="M375.79,240.46a2,2,0,0,1,2.32.47c0,.93,0,1.86-.93,1.86l-9.3,3.26-.46-.93c3.21-1.2,6.27-2.52,8.37-4.66"/><path class="cls-2" d="M374.85,247c.94-.47,1.87,0,1.87.93.46.46,0,1.39-.47,1.86L367,253l-.47-.93c3.19-1.41,6.1-2.73,8.37-5.11"/><path class="cls-2" d="M373.46,253c.47-.46,1.39,0,1.86.93.46.47,0,1.4-.47,1.86l-9.29,3.26-.47-.93c3.18-1.42,6.09-2.73,8.37-5.12"/><path class="cls-2" d="M372.07,258.14c.93-.47,1.86,0,1.86.46a2.1,2.1,0,0,1,0,2.33l-10.7,5.58-.93-.93c3.63-2.34,7.56-4.33,9.77-7.44"/><path class="cls-2" d="M360,180c-.93-.46-.93-1.39-.93-2.32a2,2,0,0,1,2.32-.47l8.37,5.12-.46.93c-2.94-2.14-6.39-2.67-9.3-3.26"/><path class="cls-2" d="M361.37,187c-.46-.47-.93-1.4-.46-1.86a1.15,1.15,0,0,1,1.86-.47l7.9,6.05-.46.93c-2.92-2.23-5.66-4.06-8.84-4.65"/><path class="cls-2" d="M361.84,194.89a1.35,1.35,0,1,1,1.39-2.32l7.91,6.05-.47.92c-2.7-2.29-6.11-3.54-8.83-4.65"/><path class="cls-2" d="M362.77,210.71a1.4,1.4,0,0,1,0-1.86,1.14,1.14,0,0,1,1.86-.47l7.44,7-.93.92a28.34,28.34,0,0,0-8.37-5.57"/><path class="cls-2" d="M362.77,202.82a1.4,1.4,0,0,1,0-1.86,1.14,1.14,0,0,1,1.86-.47l7.44,7-.93.92a28.34,28.34,0,0,0-8.37-5.57"/><path class="cls-2" d="M362.77,217.68c-.93-.47-.93-1.4,0-2.32a1.4,1.4,0,0,1,1.86,0l6.51,7.44-.93.93c-2-3-5.11-4.64-7.44-6"/><path class="cls-2" d="M362.3,224.19a2.09,2.09,0,0,1,0-2.32,1.4,1.4,0,0,1,1.86,0l6.51,7.44-.46.93c-2.54-2.88-4.72-5.24-7.91-6.05"/><path class="cls-2" d="M361.84,231.63a1.4,1.4,0,0,1,0-1.86c.46-.93,1.39-.46,1.86,0l6,7.91-.93.46c-1.89-2.78-4.58-4.66-7-6.51"/><path class="cls-2" d="M360.44,238.14a2.09,2.09,0,0,1,0-2.32c.93-.47,1.86-.47,2.33.46l5.11,8.37-.93.47c-1.6-3-4.36-5.13-6.51-7"/><path class="cls-2" d="M356.73,253c-.47-.93-.47-1.86.46-2.32a1.15,1.15,0,0,1,1.86.46l5.11,8.37-.93.47c-1.63-3-4.25-5-6.5-7"/><path class="cls-2" d="M353.47,260a1.68,1.68,0,1,1,2.79-1.86l4.65,9.76-.93.47c-1.87-3.58-3.34-6.63-6.51-8.37"/><path class="cls-2" d="M358.58,244.65c-.46-.93-.46-1.86.47-2.32.46-.47,1.39,0,1.86.46l5.11,9.77-.93.46c-1.49-3.47-4.24-6.07-6.51-8.37"/><path class="cls-2" d="M321.39,94c27.9,27.43,45.56,60.45,50.68,96.25,5.11,36.28-2.79,73-22.78,106a1.62,1.62,0,0,1-2.33.46,1.15,1.15,0,0,1-.47-1.86c19.53-32.55,27.44-68.35,22.32-104.16-5.11-34.88-21.85-67.89-49.28-94.4-.93-.46-.93-1.39,0-2.32a1.4,1.4,0,0,1,1.86,0"/><path class="cls-3" d="M217.71,359.74a11.63,11.63,0,1,1,11.63-11.62,11.63,11.63,0,0,1-11.63,11.62m0-21.61a10,10,0,1,0,10,10,10,10,0,0,0-10-10"/><path class="cls-3" d="M251.57,359.74a11.63,11.63,0,1,1,11.63-11.62,11.63,11.63,0,0,1-11.63,11.62m0-21.61a10,10,0,1,0,10,10,10,10,0,0,0-10-10"/><path class="cls-3" d="M234.64,359.74a11.63,11.63,0,1,1,11.63-11.62,11.63,11.63,0,0,1-11.63,11.62m0-21.61a10,10,0,1,0,10,10,10,10,0,0,0-10-10"/><path class="cls-3" d="M200.78,359.74a11.63,11.63,0,1,1,11.63-11.62,11.63,11.63,0,0,1-11.63,11.62m0-21.61a10,10,0,1,0,10,10,10,10,0,0,0-10-10"/><path class="cls-3" d="M183.86,359.74a11.63,11.63,0,1,1,11.62-11.62,11.63,11.63,0,0,1-11.62,11.62m0-21.61a10,10,0,1,0,10,10,10,10,0,0,0-10-10"/><path class="cls-3" d="M166.93,359.74a11.63,11.63,0,1,1,11.62-11.62,11.64,11.64,0,0,1-11.62,11.62m0-21.61a10,10,0,1,0,10,10,10,10,0,0,0-10-10"/><path class="cls-3" d="M268.5,359.74a11.63,11.63,0,1,1,11.63-11.62,11.63,11.63,0,0,1-11.63,11.62m0-21.61a10,10,0,1,0,10,10,10,10,0,0,0-10-10"/><path class="cls-4" d="M159.81,332.18h8.71A130.93,130.93,0,0,1,217.67,79.9h0c72.19,0,130.93,58.72,131,130.91v.09a131.18,131.18,0,0,1-81.52,121.28h8.65a134.74,134.74,0,0,0,76.37-121.27v-.1c0-74.13-60.34-134.41-134.46-134.41h-.05c-74.14,0-134.43,60.37-134.4,134.51a134.64,134.64,0,0,0,76.55,121.27"/><path class="cls-4" d="M353,279.53l-6.29-19.1c-11.28,30.58-33.9,56.14-62.36,71.84v31.79h-3.41v5.68A169.69,169.69,0,0,0,382.76,255.35Z"/><path class="cls-4" d="M151.07,364.06V332.18h.36c-28.64-15.31-51.69-39.94-63-70.51l-6,17.86L52.67,255.35A169.69,169.69,0,0,0,154.49,369.74v-5.68Z"/><path class="cls-4" d="M284.94,364.64H150.49V331.59H284.94Zm-133.28-1.17H283.77V332.76H151.66Z"/><path class="cls-5" d="M277,231.49a15.85,15.85,0,0,0-.15-3.31l.09,3.31Z"/><path class="cls-6" d="M285.18,259.69c-.68,1.42,2,4.27,4,4.89,1.27.4,4.93-.94,5.63-2.08a26,26,0,0,0,3.41-8.59l-13,0c-.15,1.91,1,3.77,0,5.83"/><path class="cls-7" d="M304.66,238.12c-.5-3-.3-6-2.12-8.79-.7-1.08-2-.92-2.06-.47-.39,2.3-2.87,3.32-3.64,5.17a8.65,8.65,0,0,1-7,5.46c-2.49.31-4.56,3.41-3.4,5.48a4.6,4.6,0,0,1,0,4.92,8.73,8.73,0,0,0-.57,1.33l13.31.06c1.41-4.3,1.73-9,5.25-12.53a.8.8,0,0,0,.19-.63"/><path class="cls-6" d="M257.82,234.14a5.49,5.49,0,0,1-4.61-1.94,4.64,4.64,0,0,1-.13-4.79l.48-1a28.23,28.23,0,0,0,1.52-3.69c1-3.38.38-5.88-1.94-7.87-2.85-2.44-8.71-2.89-12.53-1a6.27,6.27,0,0,0-3.84,5.9c0,2.64,1,5.06,2.26,7.73a4.5,4.5,0,0,1-.12,4.69,5.34,5.34,0,0,1-4.5,2c-5.51,0-11.66,0-17.63,0l-10.31,0c-1,2.05-.24,4.4-.57,6.58-.21,1.32,1.2,3.34-1.69,3.71-.13,0-.23.67-.23,1a5.4,5.4,0,0,0,1,3c3.93,5.57,6.44,11.51,6.6,18.27a12.25,12.25,0,0,0,3.52,8.05c2.34,2.6,3.33,6,4.52,9.26a1.25,1.25,0,0,1-.27,1.29c-.94,1-.29,1.89.22,2.71,1.73,2.77,4.48,3.46,7.87,1.91a8.07,8.07,0,0,1,4.74-1,14.56,14.56,0,0,0,10.88-2.81c4.92-3.42,8.25-8.07,11.46-12.74,1-1.49,2.53-3.33,1-5.45-.37-.53.31-1,.73-1.3a10.61,10.61,0,0,1,3-1.53c3.11-1.17,3.78-2.28,3.54-5.45a17.49,17.49,0,0,0-.93-4.91,3.47,3.47,0,0,1,1.29-4.42,58.34,58.34,0,0,1,9.8-6.91c4.15-2.15,4.44-5.65,4.1-9.3H274c-5.35,0-11.24,0-16.13,0"/><path class="cls-5" d="M204.08,206.77a5.07,5.07,0,0,1,2.28-4.34c.94-.56,2.59-1.05,5.14-.2l4.5,1.48,1.84.6a10.84,10.84,0,0,0,3.77,0c4-1.09,6-3.78,6-8.2,0-2.42-.58-8.1-6.85-8.42l-.2,0c-1.1-.2-1.76-.3-2.31,0l-.38.17-5.74,1.62a7,7,0,0,1-3,.86l-.22,0-.21-.05c-3.11-.62-4.68-2.57-4.66-5.8,0-6.75,0-13.74,0-21.38,0-.4,0-.76,0-1.08s0-.59,0-.82h-2.21l-14.3,0-11,0c-.95.39-1.27.91-.65,2.39a15.88,15.88,0,0,0,.87,1.72A8.91,8.91,0,0,1,178,168.8l.51,2.15-.07.28a5.41,5.41,0,0,0,0,2.2l.06.34-.13.32c-.12.3-.23.59-.34.89a9.88,9.88,0,0,1-2.42,4.15c-4.57,4.3-14.07,4.52-18.83.43a9.54,9.54,0,0,1-3-4.63c-1.12-3.8.35-7,1.78-10.08l.16-.35c.89-1.94.65-2.62.51-2.82s-.71-.65-2.91-.66l-14,0-8,0c.41,1.74.83,2.86.4,4.83-.2.92.75,1.35,1.48,1.91,2.89,2.22,5.86,4.54,7.05,7.91a9.13,9.13,0,0,0,3.18,4.68c2.45,1.81,4.93,3.59,7.38,5.4a6,6,0,0,0,6.67.68,11.76,11.76,0,0,1,9.11-.72,6.18,6.18,0,0,0,4.91-.43c3.22-1.37,6.37-2.92,10-3.14,3.82-.23,5,.43,6.33,3.72a2.31,2.31,0,0,0,3,1.63c.88-.18,1.79-.25,2.68-.37,2.91-.41,5.9,1.72,5.68,4.36a22.94,22.94,0,0,1-1.52,7.51,4.64,4.64,0,0,0,.47,5.24c1,1.38,2,2.76,3.08,4.12s1.91,1.89,2.65,3c.05-.87.08-1.75.1-2.52s0-1.41.09-2"/><path class="cls-8" d="M204.19,212.33l-.61-.9a8.46,8.46,0,0,0-1.19-1.35,15.39,15.39,0,0,1-1.45-1.61c-.9-1.18-1.79-2.38-2.67-3.57l-.41-.55a5,5,0,0,1-.51-5.55,22.8,22.8,0,0,0,1.5-7.42,3.36,3.36,0,0,0-1.32-2.86,5.12,5.12,0,0,0-3.95-1.15l-.86.11c-.59.07-1.2.14-1.79.27a2.66,2.66,0,0,1-3.42-1.85c-1.25-3.13-2.26-3.72-6-3.49-3.14.18-6,1.41-8.74,2.61l-1.14.49a6.63,6.63,0,0,1-5.2.44,11.44,11.44,0,0,0-8.81.7,6.38,6.38,0,0,1-7.07-.71l-3.79-2.78-3.58-2.62a9.54,9.54,0,0,1-3.31-4.83c-1.17-3.34-4.23-5.69-6.93-7.77l-.4-.29c-.66-.46-1.41-1-1.21-1.94a7.72,7.72,0,0,0-.24-4.05l-.25-1,8.79,0,13.66.05c2.17,0,2.94.44,3.2.81s.41,1.22-.47,3.13l-.17.35c-1.4,3-2.85,6.18-1.75,9.86a9.21,9.21,0,0,0,2.91,4.48c4.63,4,13.87,3.76,18.32-.42a9.76,9.76,0,0,0,2.34-4c.11-.3.22-.6.34-.89l.1-.25,0-.25a5.81,5.81,0,0,1,0-2.32l0-.21-.5-2.09a8.42,8.42,0,0,0-1.21-3.43,15.65,15.65,0,0,1-.88-1.75c-.63-1.51-.39-2.3.84-2.81l.07,0h.08l10.09,0h.92l14.31,0h2.56V162c0,.37,0,.73,0,1.13,0,7.66,0,14.66,0,21.39,0,3.08,1.41,4.87,4.37,5.47l.16,0h.16a6.49,6.49,0,0,0,2.86-.81l.09,0,5.75-1.62.33-.14a3.56,3.56,0,0,1,2.53-.08l.17,0c6.57.33,7.21,6.23,7.18,8.75-.07,4.52-2.2,7.39-6.32,8.52a11.27,11.27,0,0,1-3.93,0l-1.9-.62-4.51-1.48a5.61,5.61,0,0,0-4.81.17,4.74,4.74,0,0,0-2.12,4.08c0,.55-.06,1.22-.08,2s-.06,1.65-.11,2.53Z"/><path class="cls-4" d="M153.33,158.38c2.67,0,4.4.62,5.29,1.85,1.2,1.66.43,3.81-.25,5.29l-.16.36c-1.3,2.8-2.52,5.44-1.65,8.36a7,7,0,0,0,2.21,3.41c3.59,3.07,11.33,2.89,14.79-.36a7.56,7.56,0,0,0,1.75-3.16l.24-.63a7.64,7.64,0,0,1,0-2.53l-.4-1.72a6.49,6.49,0,0,0-1-2.76,18.9,18.9,0,0,1-1-2c-1.57-3.75.9-5.3,2.52-5.89l.26-.09h.28l11.29,0,14.32,0h1.47v-.27c0-3.25.23-7,.4-10.66.21-4.57.44-9.3.43-13.29,0-2.68-.49-3.18-.64-3.27s-.69-.29-2.94.65a36.59,36.59,0,0,1-3.84,1.26q-.87.24-1.74.51a10.54,10.54,0,0,1-4.69.08c-5.1-1-8.49-4.72-8.66-9.38-.1-3-.2-6.19,2.21-9.07a11.13,11.13,0,0,1,10.21-3.6,34.5,34.5,0,0,1,6.83,2.11,3.21,3.21,0,0,0,2.46.12,4.45,4.45,0,0,0,1.89-1.58c-2-.4-3.3-2-5.08-2.72-.19-.08-.37-.69-.25-.78,1.83-1.68,2.23-3.46.67-5.49-.1-.11.26-.51.44-.75s.41-.49-.05-.7c-1.29-.56-2.36-2-4.1-.82a3.75,3.75,0,0,1-2.37.48c-3.73-.34-7.4.4-11.13.43a17.24,17.24,0,0,0-9.54,2.84,13.78,13.78,0,0,1-11.73,1.93c-1.2-.3-1.81-.22-2.31.83a5.25,5.25,0,0,1-2.93,2.67c-4.18,1.61-6,4.51-5.61,8.6a2.1,2.1,0,0,1-.62,1.66c-1.41,1.58-2.8,3.16-5,4a12.76,12.76,0,0,0-5.22,4.09c-2.42,2.8-3.61,6.27-6,9.13-1.82,2.23-4.13,4.68-1.18,7.67a.87.87,0,0,1,.13.42c.64,4.4.47,8.67-1.66,12.67l7.55,0,14,0"/><path class="cls-9" d="M204.51,116.21a6.29,6.29,0,0,1-4.83-.17,30.66,30.66,0,0,0-6.23-1.92,8,8,0,0,0-7.27,2.64c-1.79,2.13-1.71,4.56-1.62,7.37.13,3.47,2.57,6.11,6.38,6.89a7.33,7.33,0,0,0,3.24,0c.51-.17,1.12-.34,1.73-.51a33.57,33.57,0,0,0,3.51-1.15c1.76-.73,4-1.45,5.68-.46s2,3.24,2,5.49c0,4-.21,8.8-.43,13.4-.18,3.8-.35,7.38-.4,10.6a4.32,4.32,0,0,0,0,.89,2.07,2.07,0,0,1,.19.25,4,4,0,0,0,1,.07c3.87,0,7.68-.2,11.36-.35,4.61-.19,9.34-.38,14.28-.37h2c1.61-.66,1.63-1,1.09-2.44-.41-1-.84-2.66-1.23-4.08-.22-.81-.43-1.57-.6-2.14-1.18-3.71-.83-7,1-9.56s4.86-4,8.9-4.52c4.69-.53,9.2.85,11.81,3.62,1.7,1.81,3.39,5,1.82,10.16a27.74,27.74,0,0,1-1.5,3.56c-.2.4-.38.8-.57,1.2a1.68,1.68,0,0,0,1.63,2.77c4.3,0,11,0,16.35,0a4.31,4.31,0,0,1-1.07-2.27,7.81,7.81,0,0,0-3-4.81,5.73,5.73,0,0,1-2.19-4.66c0-2.66-.76-5.11-3.28-6.79a3.25,3.25,0,0,1-1.31-2.38,10.93,10.93,0,0,0-1.6-3.77l-5.23-9a7.36,7.36,0,0,0-1-2.52c.52.88.78,1.58,1.48,2,.2.24.37.5.58.73.48.52,1,1.31,1.73,1.12s.71-1.1.91-1.74a7,7,0,0,0-.56-5.31c-.32-.63-.67-1.19-1.6-1.14a14,14,0,0,1-5.07-.87,5.31,5.31,0,0,0-4.52.58,4.94,4.94,0,0,1-3.78.6c-4.83-.88-9.55-2-13.76-4.5-1.76-1-3.68-.62-5.43.28-1.52.79-1.49,2.06-1.09,3.39a1.5,1.5,0,0,1-.75,1.94,2.75,2.75,0,0,1-2.84.15,16.51,16.51,0,0,0-5.72-2.07,2.56,2.56,0,0,1-1.81-1.11c-1-2.07-2.63-2.51-4.51-2.73a7.67,7.67,0,0,1-3.91,3.71"/><path class="cls-10" d="M234.39,231.5a2.55,2.55,0,0,0,2.1-.76,2.22,2.22,0,0,0-.11-2.21c-1.34-2.84-2.54-5.65-2.5-8.81a8.9,8.9,0,0,1,5.33-8.17c5-2.5,12.1-1.9,15.9,1.35,3.1,2.65,4,6.19,2.75,10.5a31.8,31.8,0,0,1-1.65,4l-.47,1a2.42,2.42,0,0,0-.13,2.32,2.76,2.76,0,0,0,2.23.76c4.88,0,10.76,0,16.1,0h3l-.09-3.3a5.92,5.92,0,0,0-1.78-3.3,4.4,4.4,0,0,1-.81-2.34c-.44-2.49.44-5.15-1.24-7.49-.17-.24,0-.75.12-1.1a31.2,31.2,0,0,1,3.11-6.52l.3-.41a5.42,5.42,0,0,1,.65-.8c4.44-5,8.54-10.12,14.19-14.18,7.08-5.09,9-13.12,12.13-20.4a7.51,7.51,0,0,0,.37-2.24c.13-1.4-.46-2.08-2-1.44-4.33,1.81-9.07,2.21-13.58,3.43a2.35,2.35,0,0,1-2.67-.71c-.88-1.23-3.58-1.87-1.73-4.11.1-.13-.3-.7-.57-1a47.43,47.43,0,0,0-6.14-5.61h-1.61c-5.61,0-13.29.08-18.07,0a4.94,4.94,0,0,1-4.11-1.81,4.5,4.5,0,0,1-.15-4.62c.19-.41.39-.83.59-1.24a24.46,24.46,0,0,0,1.37-3.22c1-3.16.54-5.83-1.24-7.72-2-2.11-5.54-3.15-9.26-2.72-3.17.37-5.54,1.52-6.85,3.35s-1.57,4.43-.64,7.39c.19.6.4,1.39.63,2.22.37,1.36.79,2.91,1.15,3.85,1.12,2.87.23,4.62-3,5.84l-.26.1h-2.59c-4.88,0-9.57.18-14.15.37-3.71.15-7.54.3-11.45.35H207v.91c0,7.64,0,14.65,0,21.41,0,2.14.86,2.84,2.19,3.16a3.59,3.59,0,0,0,1.58-.49l.41-.18,5.76-1.63a6,6,0,0,1,4.18-.35c5.93.35,9.56,4.58,9.48,11.08-.09,5.57-2.94,9.28-8.24,10.73a14.39,14.39,0,0,1-5.11,0l-.22-.06-1.95-.64-4.52-1.48a3.38,3.38,0,0,0-2.57-.07,2.77,2.77,0,0,0-1,2.28c0,.53-.06,1.18-.08,1.89a29,29,0,0,1-.84,7.39l-.2,0a38.59,38.59,0,0,0,1.54,3.58c.32.66,1,1.42.45,2.14-1,1.49-.32,2.83.43,4.06,1.39,2.34,2.15,3.67.38,5.6,8.27,0,17.68,0,25.75,0"/><path class="cls-5" d="M277,232.81c0-.44,0-.88,0-1.32h-.06Z"/><path d="M162,52.1,179.53,71l-7,2.76-3.11-3.56-8.72,3.43.17,4.7-6.57,2.57.22-25.84Zm-2.3,6.21.6,10.15,5.59-2.19Z"/><path d="M177.07,59.17l-.95-4.06,3-.71a15.16,15.16,0,0,1-.35-2.16,12.3,12.3,0,0,1,0-2.1,4.32,4.32,0,0,1,.52-1.83,4.49,4.49,0,0,1,1.33-1.43c.2-.12.41-.23.61-.33a4.78,4.78,0,0,1,.62-.26,6.16,6.16,0,0,1,.67-.26l.64-.22.12,0a.22.22,0,0,0,.1-.06l.1,0,.13,0,.21-.05.24-.06,1-.2c.31-.06.62-.11.93-.14l.45,0,.44-.09a3.29,3.29,0,0,0,.42,0l.41,0,.93,4a2.75,2.75,0,0,1-.58,0,2.54,2.54,0,0,0-.55,0,3.49,3.49,0,0,0-.46,0l-.38,0a2.1,2.1,0,0,0-.9.43,1.43,1.43,0,0,0-.41.8,4.38,4.38,0,0,0-.08,1,5.11,5.11,0,0,0,.14,1,.66.66,0,0,0,0,.2c0,.07,0,.13.05.2a.45.45,0,0,0,0,.08s0,.06,0,.08a.64.64,0,0,0,0,.09.58.58,0,0,0,0,.1l3.53-.9,1,4.07-3.55.83,2.85,12.19L183,70.66,180.1,58.47Z"/><path d="M208.56,48.74a3.5,3.5,0,0,0-.94-1,3.54,3.54,0,0,0-1.37-.64,5.6,5.6,0,0,0-1.76-.11,4.83,4.83,0,0,0-2.39.79,3.08,3.08,0,0,0-1.2,1.81,15.35,15.35,0,0,0-.39,2.41,17.46,17.46,0,0,0,0,2.61c0,.05,0,.09,0,.13v.14a1.15,1.15,0,0,1,0,.16c0,.05,0,.09,0,.13a.66.66,0,0,1,0,.14s0,.08,0,.13v.16a.62.62,0,0,1,0,.13,20.13,20.13,0,0,0,.66,2.94,9.45,9.45,0,0,0,1,2.24,3.37,3.37,0,0,0,1.51,1.35,4.2,4.2,0,0,0,2.17.3,5.28,5.28,0,0,0,1.82-.45,2.91,2.91,0,0,0,1.21-1,4,4,0,0,0,.65-1.25,3.43,3.43,0,0,0,.15-1.35l7-.71c0,.2,0,.39,0,.56s0,.36,0,.54a4.75,4.75,0,0,1-.05.53l-.09.54a7.06,7.06,0,0,1-.88,2.36A10,10,0,0,1,214,64.59a8,8,0,0,1-2.92,1.7,17.65,17.65,0,0,1-4.23.85,18.23,18.23,0,0,1-5.74-.25,8.37,8.37,0,0,1-4-2,10.85,10.85,0,0,1-2.51-3.52,16.51,16.51,0,0,1-1.28-4.69.71.71,0,0,0,0-.14,1.37,1.37,0,0,0,0-.19c0-.06,0-.12,0-.18s0-.1,0-.14a17.9,17.9,0,0,1,.26-5.93A8.52,8.52,0,0,1,195.68,46a11,11,0,0,1,3.61-2.51,15.6,15.6,0,0,1,4.77-1.15,20.75,20.75,0,0,1,5.23.08,8.24,8.24,0,0,1,3.59,1.4,7.38,7.38,0,0,1,2.17,2.4,7.88,7.88,0,0,1,.93,3.14l-7,.58a2.79,2.79,0,0,0-.39-1.18"/><polygon points="238.25 43.07 237.94 48 227.78 47.34 227.43 52.83 236.78 53.43 236.48 58.09 227.13 57.49 226.55 66.34 219.77 65.91 221.33 41.97 238.25 43.07"/><polygon points="263.59 47.95 262.57 52.78 255.18 51.22 251.27 69.86 244.88 68.52 248.8 49.88 241.41 48.33 242.42 43.5 263.59 47.95"/><path d="M281.5,54.4l.26,25.76-7.06-2.69.09-4.71L266,69.42,263,73l-6.6-2.52,17.55-19Zm-5.87,3-6.39,7.92,5.61,2.14Z"/><path class="cls-3" d="M141.62,274.37a1.57,1.57,0,0,0,.25-.52,1.63,1.63,0,0,0,0-.63,2.29,2.29,0,0,0-.23-.7,2,2,0,0,0-.67-.81,1.27,1.27,0,0,0-.88-.19,6.15,6.15,0,0,0-1,.21,10.2,10.2,0,0,0-1,.4l0,0,0,0-.07,0,0,0-.05,0,0,0-.07,0-.05,0a8.16,8.16,0,0,0-1,.7,4.08,4.08,0,0,0-.72.72,1.51,1.51,0,0,0-.3.79,1.9,1.9,0,0,0,.21.89,2.51,2.51,0,0,0,.46.64,1.19,1.19,0,0,0,.55.32,1.73,1.73,0,0,0,.59.07,1.67,1.67,0,0,0,.54-.15l1.34,2.62-.21.1-.21.08-.21.06-.23.05a3.07,3.07,0,0,1-1.05,0,4.79,4.79,0,0,1-1.12-.35,3.42,3.42,0,0,1-1.1-.88,7.39,7.39,0,0,1-1-1.52,7.62,7.62,0,0,1-.77-2.27,3.51,3.51,0,0,1,.19-1.87,4.52,4.52,0,0,1,1-1.5,6.47,6.47,0,0,1,1.63-1.21l.06,0,.07,0,.06,0,.06,0a7.65,7.65,0,0,1,2.34-.8,3.63,3.63,0,0,1,1.91.22,4.59,4.59,0,0,1,1.53,1,6.75,6.75,0,0,1,1.17,1.68,8.67,8.67,0,0,1,.76,2,3.63,3.63,0,0,1,0,1.61,3.08,3.08,0,0,1-.61,1.21,3.33,3.33,0,0,1-1.07.84l-1.3-2.65a1.16,1.16,0,0,0,.4-.33"/><path class="cls-3" d="M144.78,279.69l-.05,0a.11.11,0,0,0,0,0l-.08.09-.1.09-.12.13-.16.14-.08.07-.1.09-.08.06-.1.08a1.69,1.69,0,0,1,.74-.15,1.53,1.53,0,0,1,.67.15,2.56,2.56,0,0,1,.6.41,3.81,3.81,0,0,1,.57.62l-1.8,1.38s0,0-.05-.05a.09.09,0,0,1,0-.06l0-.06,0,0-.05-.06s0,0,0-.06l0-.06,0-.05a2.45,2.45,0,0,0-.52-.5,1.91,1.91,0,0,0-.61-.29,1.34,1.34,0,0,0-.66,0,1.89,1.89,0,0,0-.66.34l-2.57,2-1.65-2.16,4.23-3.25.26-.19.17-.14.06,0,.05,0,0-.05,0,0,.07-.08.1-.1a1.23,1.23,0,0,1,.16-.15l.26-.24,0,0Z"/><path class="cls-3" d="M148.12,290.17a2.86,2.86,0,0,1-1,.52,2.45,2.45,0,0,1-1.08,0,3.65,3.65,0,0,1-1.1-.45,5.31,5.31,0,0,1-1.1-.87,5.93,5.93,0,0,1-1.06-1.36,2.73,2.73,0,0,1-.36-1.31,2.78,2.78,0,0,1,.32-1.31,5.34,5.34,0,0,1,1-1.32,4.37,4.37,0,0,1,1.26-.91,3.16,3.16,0,0,1,1.35-.3,3.21,3.21,0,0,1,1.36.3,4.19,4.19,0,0,1,1.26.91,4.71,4.71,0,0,1,1.1,1.54,2.43,2.43,0,0,1,.13,1.5,4.86,4.86,0,0,1-.57,1.41,6.22,6.22,0,0,1-1,1.32l-3.52-3.55-.12.12-.12.11-.11.15-.11.16a.88.88,0,0,0-.13.3,2,2,0,0,0-.06.35.81.81,0,0,0,.09.37,1.6,1.6,0,0,0,.29.38l0,0,0,0,0,0h0l0,0,0,0a1.92,1.92,0,0,0,.31.18,1.43,1.43,0,0,0,.37.08.77.77,0,0,0,.37,0,.87.87,0,0,0,.33-.21l0,0Zm0-3.7a1.25,1.25,0,0,0,.11-.5,1.27,1.27,0,0,0-.07-.48,1.24,1.24,0,0,0-.25-.39,1.1,1.1,0,0,0-.4-.24,1.6,1.6,0,0,0-.5-.05,1.49,1.49,0,0,0-.51.14,1.62,1.62,0,0,0-.43.31l1.71,1.67a1.48,1.48,0,0,0,.34-.46"/><path class="cls-3" d="M151.66,294.84l0,0-.06,0,0,0-.1,0-.11,0a1.64,1.64,0,0,1-.4,0,2.71,2.71,0,0,1-.46-.07,2,2,0,0,1-.51-.18,3.08,3.08,0,0,1-.52-.34,4.44,4.44,0,0,1-.85-.81,1.94,1.94,0,0,1-.38-.74,2.17,2.17,0,0,1,0-.71,2,2,0,0,1,.16-.61c0-.06.05-.13.08-.18a1,1,0,0,1,.11-.17.86.86,0,0,1,.1-.16l.11-.14a2,2,0,0,1,1.08-.72,2.15,2.15,0,0,1,1.31.11,10.24,10.24,0,0,1,1.44.66,12.33,12.33,0,0,1,1.43,1c.11-.15.21-.29.3-.44s.16-.27.22-.4a.53.53,0,0,0,0-.39.8.8,0,0,0-.28-.35,1,1,0,0,0-.34-.18.61.61,0,0,0-.3,0,1.69,1.69,0,0,0-.27.11l-.22.16,0,0,0,0,0,0,0,0-.05.07,0,.06L150.82,289a2.11,2.11,0,0,1,.82-.66,1.78,1.78,0,0,1,1-.09,4.18,4.18,0,0,1,1.14.36,7,7,0,0,1,1.15.72,6,6,0,0,1,.89.85,3.87,3.87,0,0,1,.61.94,1.84,1.84,0,0,1,.21.93,1.56,1.56,0,0,1-.32.83l-2.18,2.83L154,296l-.22.33a2.22,2.22,0,0,0-.21.37,3.2,3.2,0,0,0-.17.43l-2.07-1.59s0,0,0,0l0,0a.19.19,0,0,1,0-.07.19.19,0,0,0,0-.09l.06-.1s.05-.08.07-.13a1.3,1.3,0,0,1,.1-.15l.12-.16,0,0-.07,0m1.37-2-.15-.11-.16-.11-.16-.1a3.17,3.17,0,0,0-.41-.21l-.42-.15a.86.86,0,0,0-.38,0,.54.54,0,0,0-.29.15,0,0,0,0,0,0,0h0l0,0h0l0,0v0l0,0h0a.94.94,0,0,0-.15.32,1,1,0,0,0,0,.39,1.06,1.06,0,0,0,.12.38,1,1,0,0,0,.24.29l.06.05.09.05.08,0,.09,0,.18,0h.21a1,1,0,0,0,.28-.07,1.23,1.23,0,0,0,.25-.14l.23-.17a1.8,1.8,0,0,0,.2-.19l.05-.06s0,0,.06-.05l0-.06.05-.06.09-.12.09-.11,0,0-.16-.08"/><path class="cls-3" d="M162.32,292.13l-1.11,1.75,1.29.82-.87,1.37-1.29-.81-1.58,2.49a2.55,2.55,0,0,0-.22.44.66.66,0,0,0,0,.33.55.55,0,0,0,.12.24,1.38,1.38,0,0,0,.25.21l.11.07a.33.33,0,0,0,.12,0l.12.07.14.07h0l0,0h0l0,0h0l0,0h0l-.86,1.36-.41-.19-.41-.2a2.82,2.82,0,0,1-.38-.21l-.36-.21a4.47,4.47,0,0,1-.77-.6,4,4,0,0,1-.53-.67,1.25,1.25,0,0,1-.15-.76A2,2,0,0,1,156,297l2-3.16-1.1-.69.88-1.38,1.09.7.59-.93Z"/><path class="cls-3" d="M165.57,296.25l-3.44,6.19-2.38-1.32,3.44-6.19Zm1.42-2.56-.84,1.52-2.38-1.32.84-1.52Z"/><path class="cls-3" d="M168.89,297.93l0,.05a.35.35,0,0,0,0,.06.24.24,0,0,1,0,.08s0,.06,0,.11a.33.33,0,0,0,0,.12.5.5,0,0,0,0,.13s0,.09,0,.14l-.06.13v0h0a3.12,3.12,0,0,1,.49-.18,2.43,2.43,0,0,1,.56-.09,1.76,1.76,0,0,1,.6,0,3.15,3.15,0,0,1,.63.22l.22.11.24.15a2.4,2.4,0,0,1,.26.18l.24.2a2.71,2.71,0,0,1,.41.47,2.89,2.89,0,0,1,.31.58,1.34,1.34,0,0,1,.09.67,2.31,2.31,0,0,1-.22.78l-2.11,4.5-2.37-1.1,1.8-3.85a1.73,1.73,0,0,0,.16-.54,1,1,0,0,0,0-.47,1.55,1.55,0,0,0-.21-.36,1.42,1.42,0,0,0-.3-.25h0a1.1,1.1,0,0,0-.4-.08,1.07,1.07,0,0,0-.42.06,1,1,0,0,0-.38.24,1.31,1.31,0,0,0-.29.42L166,304.39l-2.47-1.15,2.35-5,.06-.11L166,298a.56.56,0,0,1,0-.12l.06-.13.09-.25a2,2,0,0,0,.09-.22,1.89,1.89,0,0,1,.06-.18,1,1,0,0,0,0-.14s0-.08,0-.13l0,0Z"/><path class="cls-3" d="M176.58,307.87a1.91,1.91,0,0,1-.52.14,3.66,3.66,0,0,1-.57,0,2,2,0,0,1-.54-.08l-.11,0a.35.35,0,0,1-.11,0l-.1,0-.11,0a3.28,3.28,0,0,1-1.1-.67,2.91,2.91,0,0,1-.69-1.07,3.5,3.5,0,0,1-.24-1.28,4.13,4.13,0,0,1,.26-1.35,4,4,0,0,1,.67-1.18,3.53,3.53,0,0,1,1-.83,3.06,3.06,0,0,1,1.22-.36,3,3,0,0,1,1.27.2,3.81,3.81,0,0,1,.73.34,2,2,0,0,1,.51.41,1.54,1.54,0,0,1,.33.51,2.58,2.58,0,0,1,.16.65c0-.07,0-.13.07-.19a.69.69,0,0,1,.07-.15l.08-.15c0-.05,0-.1.07-.14l.06-.1a.56.56,0,0,1,.05-.08l0,0,0,0h0l2.46.87L179.42,309a4.1,4.1,0,0,1-.73,1.28,2.34,2.34,0,0,1-1,.7,4.92,4.92,0,0,1-1.12.26,4,4,0,0,1-1.09-.05l-.12,0-.11,0-.13,0-.12,0-.22-.06-.21-.07-.07,0-.06,0,0,0-.06,0h0s0,0,0,0h-.07l-.28-.12a2.2,2.2,0,0,1-.31-.15l-.17-.08-.16-.08-.16-.09-.16-.1a3.8,3.8,0,0,1-.62-.52,3.9,3.9,0,0,1-.51-.63,1.49,1.49,0,0,1-.24-.77,2.4,2.4,0,0,1,.16-.91l2.46.9a.74.74,0,0,0-.05.29,1,1,0,0,0,.05.3,1.32,1.32,0,0,0,.21.29,2.61,2.61,0,0,0,.41.28,1.67,1.67,0,0,0,.84.12.77.77,0,0,0,.55-.33,6.16,6.16,0,0,0,.37-.63c.11-.23.22-.48.33-.77,0,0,0,0,0-.05a.39.39,0,0,0,0-.06.14.14,0,0,0,0-.06l0-.06v0a1.49,1.49,0,0,1-.46.31m1.34-2.7s0,0,0-.05V305a2.33,2.33,0,0,0,.08-.59,2.2,2.2,0,0,0-.05-.57,1.18,1.18,0,0,0-.24-.49,1.08,1.08,0,0,0-.44-.3l-.12,0-.13,0h-.29a1.27,1.27,0,0,0-.36.12,1.88,1.88,0,0,0-.36.24,1.35,1.35,0,0,0-.35.42,3.59,3.59,0,0,0-.3.65,2.86,2.86,0,0,0-.18.79,1.65,1.65,0,0,0,.06.64,1.14,1.14,0,0,0,.27.47,1,1,0,0,0,.45.29,1.27,1.27,0,0,0,.62.09.86.86,0,0,0,.5-.23,2.25,2.25,0,0,0,.43-.52,4.16,4.16,0,0,0,.34-.73v0a0,0,0,0,0,0,0"/><path class="cls-3" d="M186.14,304.76a7.7,7.7,0,0,1,1.15-1.52,3.1,3.1,0,0,1,1.8-.84,7.65,7.65,0,0,1,2.72.22h.3a6.19,6.19,0,0,1,3,1.85,3.16,3.16,0,0,1,.73,1.77,7.43,7.43,0,0,1-.21,2.57l-.11.41a3.1,3.1,0,0,1-.13.4,1.8,1.8,0,0,1-.08.21c0,.07-.05.14-.07.21l-.11.22-.09.2a4.61,4.61,0,0,1-.8,1.11,6.23,6.23,0,0,1-1.11.9,3.2,3.2,0,0,1-1.53.46,7,7,0,0,1-2-.21,8,8,0,0,1-2.47-1,3.12,3.12,0,0,1-1.29-1.45,6.36,6.36,0,0,1-.46-1.72,6.65,6.65,0,0,1,0-1.78v-.06s0,0,0,0v0s0-.06,0-.08,0-.06,0-.09v0a8,8,0,0,1,.74-1.8m2,3.56a4.52,4.52,0,0,0,.18,1.15,2,2,0,0,0,.55.92,2.16,2.16,0,0,0,1,.49,2,2,0,0,0,.95,0,1.7,1.7,0,0,0,.81-.44,3,3,0,0,0,.64-.89,6.5,6.5,0,0,0,.48-1.36,6.66,6.66,0,0,0,.15-1.22,4.09,4.09,0,0,0-.15-1.12,1.82,1.82,0,0,0-.52-.88,2.06,2.06,0,0,0-1-.48,1.9,1.9,0,0,0-1.06,0,1.71,1.71,0,0,0-.84.59,5,5,0,0,0-.62.95,6.57,6.57,0,0,0-.45,1.09v0a5,5,0,0,0-.14,1.19"/><path class="cls-3" d="M199.47,307.34v.11a.28.28,0,0,1,0,.09v.11s0,.08,0,.13v.28a.77.77,0,0,1,0,.15v0a2.78,2.78,0,0,1,.41-.32,3,3,0,0,1,.51-.24,1.88,1.88,0,0,1,.59-.13,3.09,3.09,0,0,1,.67,0l.24,0,.28.08.29.09.29.13a2.73,2.73,0,0,1,.52.34,2.93,2.93,0,0,1,.46.47,1.37,1.37,0,0,1,.28.61,2.81,2.81,0,0,1,0,.82l-.77,4.91-2.59-.4.66-4.19a1.83,1.83,0,0,0,0-.57.93.93,0,0,0-.19-.44,1.37,1.37,0,0,0-.3-.29,1.14,1.14,0,0,0-.36-.15h0a1.07,1.07,0,0,0-.4,0,1.32,1.32,0,0,0-.39.17,1.27,1.27,0,0,0-.3.35,1.43,1.43,0,0,0-.16.48l-.67,4.27-2.69-.42.86-5.49a.5.5,0,0,1,0-.12c0-.05,0-.09,0-.14a.49.49,0,0,1,0-.12.59.59,0,0,1,0-.14,2.11,2.11,0,0,1,0-.26,2,2,0,0,0,0-.24,1.34,1.34,0,0,0,0-.19.32.32,0,0,0,0-.14.61.61,0,0,1,0-.14v0Z"/><path class="cls-3" d="M211.89,313.65a3.07,3.07,0,0,1-.46,1.07,2.43,2.43,0,0,1-.82.7,3.57,3.57,0,0,1-1.13.36,5.37,5.37,0,0,1-1.4,0,5.87,5.87,0,0,1-1.68-.38,2.7,2.7,0,0,1-1.12-.77,2.77,2.77,0,0,1-.58-1.22,5.17,5.17,0,0,1-.08-1.65,4.85,4.85,0,0,1,.39-1.51,3.18,3.18,0,0,1,.86-1.09,3.12,3.12,0,0,1,1.24-.64,4.33,4.33,0,0,1,1.55-.1,4.79,4.79,0,0,1,1.82.49,2.49,2.49,0,0,1,1.06,1.07,5,5,0,0,1,.47,1.45,6.68,6.68,0,0,1,0,1.68l-5-.5,0,.17c0,.05,0,.11,0,.17a.54.54,0,0,0,0,.18,1.23,1.23,0,0,1,0,.19,1.68,1.68,0,0,0,.09.32,2.38,2.38,0,0,0,.18.3.72.72,0,0,0,.31.23,1.48,1.48,0,0,0,.47.11h.22a1.36,1.36,0,0,0,.35-.07,1.17,1.17,0,0,0,.34-.16,1,1,0,0,0,.26-.27,1,1,0,0,0,.12-.37v0Zm-2.33-2.86a1.17,1.17,0,0,0-.23-.46A1.28,1.28,0,0,0,209,310a1.08,1.08,0,0,0-.43-.13.93.93,0,0,0-.47.06,1.5,1.5,0,0,0-.41.28,1.27,1.27,0,0,0-.31.43,1.8,1.8,0,0,0-.13.52l2.38.19a1.71,1.71,0,0,0,0-.56"/><path class="cls-3" d="M223.7,306.21l4,10-3.15,0-.68-1.84-3.91,0-.63,1.86-2.95,0,3.92-10Zm-1.82,2.08-1.27,4,2.5,0Z"/><path class="cls-3" d="M227.6,310.93l-.1-1.74,1.29-.08c0-.31,0-.62,0-.91a6.07,6.07,0,0,1,.14-.87,1.87,1.87,0,0,1,.34-.71,1.82,1.82,0,0,1,.65-.5l.27-.09a1.4,1.4,0,0,1,.28-.06l.29-.06.28-.05h0l.05,0h.29l.41,0h.77l.17,0H233l.1,1.71a1.55,1.55,0,0,1-.23-.06l-.23,0-.19,0h-.16a.79.79,0,0,0-.4.11.53.53,0,0,0-.22.3,1.59,1.59,0,0,0-.1.39,2,2,0,0,0,0,.43.25.25,0,0,0,0,.08.28.28,0,0,0,0,.09v.11a.08.08,0,0,0,0,0l1.51-.12.1,1.74-1.51.09.31,5.22-2.72.16-.31-5.22Z"/><path class="cls-3" d="M236.23,308.55v.05a.25.25,0,0,0,0,.07.36.36,0,0,1,0,.11.61.61,0,0,0,0,.13c0,.06,0,.12,0,.18a1.77,1.77,0,0,0,0,.2s0,.08,0,.11a.35.35,0,0,0,0,.13.45.45,0,0,0,0,.11.57.57,0,0,0,0,.12,1.94,1.94,0,0,1,.26-.71,1.5,1.5,0,0,1,.48-.49,2.89,2.89,0,0,1,.67-.29,4.07,4.07,0,0,1,.83-.16l.22,2.25-.07,0h-.48a2.48,2.48,0,0,0-.7.18,1.93,1.93,0,0,0-.57.37,1.28,1.28,0,0,0-.34.56,2,2,0,0,0,0,.74l.31,3.22-2.71.27-.52-5.31c0-.12,0-.23,0-.32s0-.16,0-.22a.2.2,0,0,1,0-.07v-.07a.08.08,0,0,1,0-.05v-.05a.2.2,0,0,1,0-.11s0-.08,0-.14a1.3,1.3,0,0,1,0-.21c0-.1,0-.21-.07-.35v0Z"/><path class="cls-3" d="M241.52,304.83l.23,1.73-2.7.36-.23-1.72Zm.39,2.91,1,7-2.7.37-.95-7Z"/><path class="cls-3" d="M250.76,310.52a3,3,0,0,1,0,1.4,2.27,2.27,0,0,1-.66,1.08,4.06,4.06,0,0,1-1.08.76,5.18,5.18,0,0,1-1.33.43,5.63,5.63,0,0,1-1.49.09,2.63,2.63,0,0,1-1.11-.33,3.8,3.8,0,0,1-.79-.62,2.92,2.92,0,0,1-.55-.73,3.39,3.39,0,0,1-.18-.39c0-.12-.1-.25-.14-.37s-.06-.25-.09-.36-.06-.23-.08-.34a4.46,4.46,0,0,1,.05-1.56,3.2,3.2,0,0,1,.59-1.25,3.39,3.39,0,0,1,1-.91,4.51,4.51,0,0,1,1.42-.5l.27,0,.28,0,.3,0,.28,0a4.21,4.21,0,0,1,1.88.42,1.75,1.75,0,0,1,.73.65,2.88,2.88,0,0,1,.4,1.07l-2.69.46a1.66,1.66,0,0,0-.15-.46,1.17,1.17,0,0,0-.24-.33.88.88,0,0,0-.35-.17,1,1,0,0,0-.43,0,.69.69,0,0,0-.4.22,1.14,1.14,0,0,0-.22.47,2.84,2.84,0,0,0-.07.66,3.93,3.93,0,0,0,.07.74v.08s0,0,0,.06a.22.22,0,0,0,0,.08s0,0,0,.06a3.88,3.88,0,0,0,.18.71,4.39,4.39,0,0,0,.26.63,1,1,0,0,0,.37.4.77.77,0,0,0,.51.07,1.07,1.07,0,0,0,.41-.16.76.76,0,0,0,.25-.31,1.08,1.08,0,0,0,.11-.46,3.12,3.12,0,0,0,0-.65v0Z"/><path class="cls-3" d="M256.38,311.25a.1.1,0,0,0,0,0s0,0,0,.06,0,0,0,0a.42.42,0,0,1,0,.1l-.05.1a1.65,1.65,0,0,1-.23.33,1.75,1.75,0,0,1-.34.32,1.64,1.64,0,0,1-.45.28,4.53,4.53,0,0,1-.59.21,4.79,4.79,0,0,1-1.16.15,2,2,0,0,1-.83-.16,2.19,2.19,0,0,1-1-.92l-.09-.18a1.34,1.34,0,0,1-.07-.18l-.06-.18c0-.06,0-.12,0-.18a2.06,2.06,0,0,1,.11-1.29,2.1,2.1,0,0,1,.9-.95,9.93,9.93,0,0,1,1.42-.72,12.13,12.13,0,0,1,1.64-.52c0-.18-.1-.35-.16-.51a4.08,4.08,0,0,0-.17-.42.55.55,0,0,0-.3-.26.85.85,0,0,0-.45,0,1.27,1.27,0,0,0-.35.15.72.72,0,0,0-.2.23,1,1,0,0,0-.08.28,2.26,2.26,0,0,0,0,.27v0s0,0,0,0a0,0,0,0,0,0,.05v0l0,.08a.24.24,0,0,0,0,.08l-2.55.6a2.11,2.11,0,0,1,0-1.06,1.76,1.76,0,0,1,.57-.86,3.89,3.89,0,0,1,1-.66,6.41,6.41,0,0,1,1.28-.46,6,6,0,0,1,1.22-.17,4.45,4.45,0,0,1,1.11.11,1.83,1.83,0,0,1,.86.42,1.49,1.49,0,0,1,.45.77l.85,3.46c0,.12.06.23.1.35s.07.25.11.38a3.74,3.74,0,0,0,.4.8l-2.54.63h0a0,0,0,0,1,0,0l0-.06a.36.36,0,0,0,0-.09,1.17,1.17,0,0,1-.05-.11s0-.08-.05-.14a.85.85,0,0,1-.06-.17,1.8,1.8,0,0,0-.05-.19v0a.2.2,0,0,0,0,.07m-.73-2.32-.18.05-.17,0-.18.07a2.68,2.68,0,0,0-.42.19,2.55,2.55,0,0,0-.39.24.83.83,0,0,0-.26.27.59.59,0,0,0-.06.32v.1a0,0,0,0,0,0,0v.06a.74.74,0,0,0,.16.32.89.89,0,0,0,.29.25,1,1,0,0,0,.37.15,1,1,0,0,0,.38,0l.08,0a.16.16,0,0,0,.09,0l.07,0,.08-.05a.75.75,0,0,0,.14-.12,1.26,1.26,0,0,0,.13-.17,1.59,1.59,0,0,0,.12-.27,1.1,1.1,0,0,0,0-.27,2.81,2.81,0,0,0,0-.29c0-.09,0-.18,0-.28s0,0,0-.07v-.08a.64.64,0,0,1,0-.07s0-.05,0-.08l0-.14a.74.74,0,0,1,0-.14v0l-.16.07"/><path class="cls-3" d="M260.9,303.46l0,0s0,0,0,.06a.16.16,0,0,1,0,.07s0,.06.06.1l0,.12a.75.75,0,0,0,.07.12l.06.13a.78.78,0,0,1,0,.14v0h0a3.39,3.39,0,0,1,.23-.47,2.75,2.75,0,0,1,.35-.45,2,2,0,0,1,.47-.38,2.62,2.62,0,0,1,.61-.27l.23-.07.28-.05.31,0,.31,0a2.68,2.68,0,0,1,.62.07,2.52,2.52,0,0,1,.62.21,1.35,1.35,0,0,1,.53.43,2.21,2.21,0,0,1,.36.72l1.53,4.74-2.48.8-1.31-4a1.73,1.73,0,0,0-.25-.51,1.06,1.06,0,0,0-.36-.31,1.27,1.27,0,0,0-.4-.11,1,1,0,0,0-.39,0h0a1.2,1.2,0,0,0-.34.21,1.46,1.46,0,0,0-.26.34,1.11,1.11,0,0,0-.12.44,1.47,1.47,0,0,0,.07.5l1.33,4.12-2.59.84-1.71-5.29a.56.56,0,0,0,0-.12.65.65,0,0,0,0-.13.73.73,0,0,1-.05-.12s0-.08,0-.13a2.44,2.44,0,0,1-.1-.24l-.09-.22a1.26,1.26,0,0,1-.08-.18.63.63,0,0,0-.07-.12.69.69,0,0,1-.05-.13v0Z"/><polygon class="cls-3" points="273.02 295.64 277.32 300.92 275.75 294.3 279.65 292.37 284.08 301.35 281.93 302.41 278.23 294.89 279.88 303.41 277.54 304.57 271.88 298.02 275.58 305.53 273.44 306.59 269.01 297.61 273.02 295.64"/><path class="cls-3" d="M289,297.16s0,0,0,0,0,0,0,.06,0,0,0,.05a.41.41,0,0,1,0,.11.52.52,0,0,1,0,.11,2.16,2.16,0,0,1-.09.39,1.84,1.84,0,0,1-.22.41,1.79,1.79,0,0,1-.34.42,3.14,3.14,0,0,1-.48.39,5,5,0,0,1-1,.54,2,2,0,0,1-.84.11,2.27,2.27,0,0,1-.67-.18,2.25,2.25,0,0,1-.53-.36l-.15-.14a1,1,0,0,1-.12-.15l-.11-.15s-.07-.1-.11-.15a2.12,2.12,0,0,1-.33-1.25,2.17,2.17,0,0,1,.54-1.2,8.46,8.46,0,0,1,1.1-1.15,11.31,11.31,0,0,1,1.36-1,3.65,3.65,0,0,0-.31-.43l-.31-.34a.56.56,0,0,0-.36-.14.8.8,0,0,0-.43.15,1,1,0,0,0-.28.26.61.61,0,0,0-.11.28.93.93,0,0,0,0,.29,1,1,0,0,0,.08.26.1.1,0,0,1,0,0l0,0a.08.08,0,0,0,0,.05l0,0,.05.07,0,.07-2.19,1.42a2,2,0,0,1-.36-1,1.77,1.77,0,0,1,.25-1,3.73,3.73,0,0,1,.71-1,6.16,6.16,0,0,1,1.06-.85,5.42,5.42,0,0,1,1.09-.57,4,4,0,0,1,1.09-.28,2,2,0,0,1,.95.12,1.42,1.42,0,0,1,.67.57l2,3,.21.31.24.31a2.86,2.86,0,0,0,.29.33,3.63,3.63,0,0,0,.35.3l-2.18,1.43h0l0,0-.05-.05-.07-.07a.38.38,0,0,1-.09-.09l-.09-.11a.53.53,0,0,1-.11-.14l-.11-.16v0s0,.05,0,.07m-1.46-2a.83.83,0,0,1-.15.11l-.15.11-.14.12a2.61,2.61,0,0,0-.34.32,3.07,3.07,0,0,0-.28.35.74.74,0,0,0-.15.35.58.58,0,0,0,0,.32s0,0,0,0,0,0,0,0v0a0,0,0,0,0,0,0v0s0,0,0,0a.85.85,0,0,0,.26.24.82.82,0,0,0,.36.14,1.1,1.1,0,0,0,.4,0,1.07,1.07,0,0,0,.35-.14l.07-.05.07-.06.06-.07a.18.18,0,0,1,.05-.07.51.51,0,0,0,.09-.16.65.65,0,0,0,.06-.21,1,1,0,0,0,0-.29,1.28,1.28,0,0,0-.05-.27l-.09-.27a2,2,0,0,0-.11-.26l0-.07a.09.09,0,0,1,0-.07l0-.05-.05-.07a.83.83,0,0,0-.08-.12.57.57,0,0,0-.08-.13v0a.49.49,0,0,1-.13.12"/><path class="cls-3" d="M290.59,288.3l0,0,.06.05.09.07.1.09.12.13.15.15.07.08a.38.38,0,0,0,.09.09l.07.09.08.1a1.89,1.89,0,0,1-.17-.75,1.47,1.47,0,0,1,.13-.66,3.26,3.26,0,0,1,.4-.62,4.26,4.26,0,0,1,.61-.58l1.42,1.76s0,.05,0,.06l-.06,0-.06.05-.05,0-.06.05-.05,0-.06.05-.05,0a2.21,2.21,0,0,0-.49.53,1.72,1.72,0,0,0-.27.62,1.2,1.2,0,0,0,0,.65,1.8,1.8,0,0,0,.36.66l2,2.52-2.12,1.7-3.34-4.15-.2-.25-.14-.17-.05-.06,0-.05a.08.08,0,0,1,0,0l0,0-.08-.07-.11-.1-.15-.15a2,2,0,0,0-.25-.25v0Z"/><polygon class="cls-3" points="292.54 282.5 296.82 286.68 296.23 282.92 298.29 280.81 298.8 284.66 303.57 285.54 301.36 287.79 297.04 286.91 299.69 289.5 297.78 291.44 290.63 284.44 292.54 282.5"/><path class="cls-3" d="M306.53,277.35a2.72,2.72,0,0,1,.7.92,2.52,2.52,0,0,1,.22,1.06,3.59,3.59,0,0,1-.24,1.16,5.63,5.63,0,0,1-.67,1.24A6.08,6.08,0,0,1,305.4,283a2.7,2.7,0,0,1-2.57.51,5.17,5.17,0,0,1-1.48-.75,4.14,4.14,0,0,1-1.12-1.08,3.08,3.08,0,0,1-.54-1.28,3.12,3.12,0,0,1,.05-1.39,4.27,4.27,0,0,1,.67-1.4,4.73,4.73,0,0,1,1.32-1.35,2.4,2.4,0,0,1,1.45-.4,5,5,0,0,1,1.5.3,7.11,7.11,0,0,1,1.48.79l-2.87,4.1.14.09.13.1.17.08.17.08a1.32,1.32,0,0,0,.33.08,2.08,2.08,0,0,0,.35,0,.83.83,0,0,0,.35-.15,1.64,1.64,0,0,0,.32-.36l0-.05,0,0v0s0,0,0,0v0l0,0a1.35,1.35,0,0,0,.11-.34,1.14,1.14,0,0,0,0-.37.89.89,0,0,0-.11-.36.92.92,0,0,0-.27-.29h0Zm-3.64.63a1.1,1.1,0,0,0-.51,0,1.25,1.25,0,0,0-.46.16,1,1,0,0,0-.34.32,1,1,0,0,0-.17.44,1.39,1.39,0,0,0,0,.49,1.34,1.34,0,0,0,.23.48,1.91,1.91,0,0,0,.38.37l1.34-2a1.51,1.51,0,0,0-.51-.25"/><path class="cls-3" d="M302.54,270l1.88.87.64-1.38,1.48.69-.64,1.38,2.67,1.24a2.29,2.29,0,0,0,.47.17.71.71,0,0,0,.33,0,.57.57,0,0,0,.22-.16.89.89,0,0,0,.17-.27l.06-.12a.56.56,0,0,0,0-.12.69.69,0,0,0,.05-.13,1.31,1.31,0,0,0,0-.15v-.13a0,0,0,0,0,0,0l0,0v0l1.45.68c0,.14-.09.28-.13.43a3.12,3.12,0,0,1-.15.43,3.39,3.39,0,0,1-.15.41c-.06.13-.11.26-.17.38a4.24,4.24,0,0,1-.5.84,3.39,3.39,0,0,1-.58.61,1.24,1.24,0,0,1-.74.25,2.11,2.11,0,0,1-.92-.23L304.75,274l-.54,1.18-1.48-.69.54-1.18-1-.46Z"/><polygon class="cls-3" points="342.26 360.57 340.72 360.57 340.72 360.02 344.46 360.02 344.46 360.57 342.92 360.57 342.92 365.07 342.26 365.07 342.26 360.57"/><path class="cls-3" d="M349.28,362.85c0-.71-.08-1.55-.07-2.18h0c-.17.59-.38,1.22-.63,1.92l-.9,2.45h-.49l-.82-2.41c-.24-.71-.44-1.36-.58-2h0c0,.63-.05,1.47-.1,2.23l-.13,2.17h-.62l.35-5.05h.83l.86,2.44c.21.62.39,1.18.51,1.7h0a15.88,15.88,0,0,1,.53-1.7l.9-2.44h.83l.32,5.05h-.64Z"/><path class="cls-3" d="M345.6,370.27a7.41,7.41,0,1,1,7.41-7.4,7.41,7.41,0,0,1-7.41,7.4m0-14.12a6.72,6.72,0,1,0,6.71,6.72,6.72,6.72,0,0,0-6.71-6.72"/></svg>